<?xml version="1.0" encoding="UTF-8"?>
<svg width="155px" height="44px" viewBox="0 0 155 44" version="1.1" xmlns="http://www.w3.org/2000/svg" xmlns:xlink="http://www.w3.org/1999/xlink">
    <!-- Generator: Sketch 43.2 (39069) - http://www.bohemiancoding.com/sketch -->
    <title>logo/vimeo</title>
    <desc>Created with Sketch.</desc>
    <defs></defs>
    <g id="Symbols" stroke="none" stroke-width="1" fill="none" fill-rule="evenodd">
        <g id="logo/vimeo" fill="#202424">
            <g id="Page-1">
                <path d="M34.6074516,20.7599115 C34.4528265,24.1282519 32.0991505,28.7402009 27.546049,34.5940732 C22.8383222,40.7083881 18.8555532,43.76592 15.597367,43.76592 C13.5799305,43.76592 11.871182,41.9046264 10.4763694,38.1799796 C9.54468259,34.7663285 8.61318319,31.3524902 7.6816838,27.9392136 C6.64560157,24.2166264 5.534737,22.3532732 4.34627872,22.3532732 C4.08744559,22.3532732 3.18068622,22.8981243 1.6289994,23.9831455 L9.37122128e-05,21.885937 C1.70865478,20.3854434 3.39435006,18.885137 5.05305623,17.3825838 C7.33176239,15.414754 9.04275998,14.3799115 10.1832376,14.2754349 C12.8778386,14.0166774 14.5365447,15.8573753 15.1589813,19.7975285 C15.8314601,24.0486774 16.2972098,26.6927966 16.5584794,27.7280136 C17.3355411,31.2549413 18.1898216,33.0166264 19.1235701,33.0166264 C19.8483404,33.0166264 20.936714,31.8724391 22.3885036,29.5848136 C23.8380441,27.2966264 24.6151058,25.5559115 24.7195012,24.3598604 C24.9264178,22.385103 24.1493561,21.3955711 22.3885036,21.3955711 C21.5591505,21.3955711 20.70487,21.5861753 19.825662,21.9628902 C21.5274758,16.3930519 24.7787273,13.6877072 29.5771675,13.8418009 C33.1350453,13.9462774 34.8119317,16.2522519 34.6074516,20.7599115" id="Fill-1"></path>
                <path d="M49.2142056,4.05019064 C49.1621016,5.33948426 48.5145502,6.57635234 47.2694897,7.7613566 C45.8698041,9.10045447 44.2112854,9.77019064 42.2937461,9.77019064 C39.3399371,9.77019064 37.9132624,8.48314383 38.0178452,5.90699064 C38.0677001,4.56789277 38.8582563,3.27878638 40.3874522,2.04154383 C41.9164607,0.806922553 43.6135889,0.187177872 45.4812733,0.187177872 C46.5696469,0.187177872 47.4762189,0.613884255 48.2032382,1.46299064 C48.9280085,2.31396936 49.2642479,3.1765566 49.2142056,4.05019064 L49.2142056,4.05019064 Z M55.9779782,31.6703949 C54.5261886,34.412063 52.5314305,36.8953481 49.9912672,39.1196885 C46.5171681,42.1203013 43.0456929,43.6206077 39.5740302,43.6206077 C37.9653664,43.6206077 36.7341753,43.1030928 35.8797074,42.0678757 C35.0254268,41.032846 34.6234015,39.6896289 34.6756929,38.0322332 C34.7255478,36.3257821 35.2572709,33.6859694 36.2682382,30.1156034 C37.279393,26.5454247 37.7860012,24.6300204 37.7860012,24.3710757 C37.7860012,23.0271098 37.317815,22.3532545 36.386503,22.3532545 C36.0751911,22.3532545 35.193734,22.8981055 33.741757,23.9831268 L31.9537279,21.8859183 C33.6122467,20.3854247 35.2707654,18.8851183 36.9294716,17.3825651 C39.1583229,15.4147353 40.8168416,14.3798928 41.9074643,14.2754162 C43.6160254,14.1211353 44.8725187,14.6227353 45.676757,15.784897 C46.4787461,16.9468715 46.7763761,18.4541055 46.571896,20.3107183 C45.8971681,23.4586843 45.1699613,27.4555694 44.3930871,32.3034332 C44.3407956,34.5234672 45.1450339,35.6309566 46.80374,35.6309566 C47.5283229,35.6309566 48.8234256,34.8662928 50.6909226,33.332097 C52.2450459,32.0562843 53.5150339,30.8555523 54.5012612,29.7299013 L55.9779782,31.6703949 Z" id="Fill-3"></path>
                <path d="M104.530126,31.67032 C103.078336,34.4121753 101.083391,36.8952732 98.5432273,39.1196136 C95.0693156,42.1204136 91.5974655,43.6205328 88.1261778,43.6205328 C84.7542249,43.6205328 83.1230701,41.7594264 83.2274655,38.0323455 C83.2773204,36.3755115 83.6025018,34.3850264 84.1975744,32.0563966 C84.7930218,29.7275796 85.1180157,27.9162774 85.1701197,26.6226774 C85.2224111,24.6570945 84.6247146,23.6720562 83.375156,23.6720562 C82.023451,23.6720562 80.4125381,25.2788987 78.5403555,28.4882774 C76.5637775,31.8541838 75.4958331,35.1158009 75.3413954,38.2731285 C75.237,40.5017753 75.4549746,42.2110349 75.9956941,43.4003455 C72.3787775,43.5048221 69.8449867,42.9081072 68.4001318,41.6141328 C67.105029,40.4746264 66.5120181,38.5863711 66.616601,35.9443115 C66.6664559,34.2874774 66.9209782,32.6306434 67.3797932,30.9738094 C67.8365466,29.3169753 68.0910689,27.8415711 68.1431729,26.5453498 C68.2479432,24.6299455 67.5456638,23.6720562 66.0417703,23.6720562 C64.7419819,23.6720562 63.3402346,25.14952 61.8361536,28.1001413 C60.3320726,31.0507626 59.5006578,34.1330094 59.3460326,37.3425753 C59.2414498,40.2432051 59.4277497,42.2610264 59.9026832,43.4003455 C56.3446179,43.5048221 53.8181366,42.7555115 52.3232394,41.1531626 C51.0826771,39.8120051 50.5170302,37.7737753 50.6214256,35.0366009 C50.671468,33.6948817 50.9076227,31.822354 51.334763,29.4208902 C51.7619033,27.0196136 52.0004946,25.14952 52.0507243,23.8059285 C52.1528706,22.8776221 51.9187775,22.4121583 51.3506941,22.4121583 C51.0395695,22.4121583 50.157925,22.9366009 48.7061354,23.9830519 L46.8408875,21.8858434 C47.0999081,21.6813838 48.7312503,20.1790179 51.7392249,17.3824902 C53.9157848,15.3648562 55.3926892,14.3298264 56.1697509,14.2775881 C57.5171451,14.1732987 58.6053313,14.7293838 59.4346844,15.9460306 C60.2638501,17.1626774 60.6797449,18.5742349 60.6797449,20.1790179 C60.6797449,20.6965328 60.6274534,21.1889583 60.5253071,21.6544221 C61.3021814,20.4649243 62.2087533,19.4274604 63.2470846,18.5468987 C65.6305611,16.4770264 68.3000472,15.3103711 71.2540435,15.0516136 C73.7940193,14.8450945 75.6071632,15.4397498 76.697786,16.8378264 C77.576994,17.9771455 77.9904522,19.6092647 77.9405973,21.7313753 C78.3042007,21.4228136 78.6927316,21.0846689 79.1084389,20.7212477 C80.2991463,19.3233583 81.4647388,18.2111881 82.6052164,17.3824902 C84.5225683,15.9846009 86.519763,15.2081413 88.59174,15.0516136 C91.0794244,14.8450945 92.8674534,15.437503 93.9560145,16.831086 C94.8875139,17.9660987 95.3034087,19.591103 95.2012624,21.7040391 C95.1485961,23.1498604 94.7990496,25.251937 94.1514982,28.0117668 C93.5015103,30.7717838 93.1789528,32.3559711 93.1789528,32.7690094 C93.1266614,33.8538434 93.2314317,34.60072 93.4902648,35.0137583 C93.7492854,35.4267966 94.3694728,35.6308817 95.3557001,35.6308817 C96.0804704,35.6308817 97.3751983,34.8662179 99.2428827,33.3320221 C100.797193,32.0563966 102.066994,30.8554774 103.053221,29.7300136 L104.530126,31.67032 Z" id="Fill-6"></path>
                <path d="M116.035493,23.481377 C116.085722,22.0922877 115.517452,21.3954026 114.327119,21.3954026 C112.772996,21.3954026 111.196194,22.4645089 109.592028,24.6025345 C107.987863,26.74056 107.158885,28.787777 107.108655,30.7443728 C107.079229,30.7443728 107.079229,31.0802706 107.108655,31.7498196 C109.644132,30.82376 111.843745,29.4075217 113.706744,27.5009174 C115.206327,25.8532579 115.983201,24.511726 116.035493,23.481377 L116.035493,23.481377 Z M133.684501,31.5910451 C132.18042,34.074143 129.226986,36.5548068 124.821575,39.0356579 C119.327415,42.1905515 113.754537,43.7659387 108.106315,43.7659387 C103.907446,43.7659387 100.899284,42.3674877 99.0861397,39.5737685 C97.7910369,37.6579898 97.1686004,35.3814111 97.2208918,32.7395387 C97.2711215,28.5475557 99.1388059,24.5619047 102.819072,20.7803387 C106.861255,16.6404068 111.630082,14.5682877 117.124054,14.5682877 C122.204005,14.5682877 124.898606,16.635726 125.209918,20.7668579 C125.416648,23.3995557 123.964858,26.1118281 120.856986,28.9014281 C117.537512,31.9497855 113.36357,33.8855983 108.338159,34.7116749 C109.269471,36.0032153 110.668782,36.6480494 112.536466,36.6480494 C116.267149,36.6480494 120.336508,35.7015813 124.743981,33.8039643 C127.904332,32.471794 130.392579,31.0871983 132.207784,29.6526111 L133.684501,31.5910451 Z" id="Fill-8"></path>
                <path d="M146.003815,26.0916817 C146.056294,24.6913583 145.86081,23.4063711 145.420175,22.2397157 C144.979166,21.0730604 144.343422,20.4873923 143.516131,20.4873923 C140.871572,20.4873923 138.694825,21.9152391 136.986638,24.7683115 C135.532412,27.1038689 134.755163,29.59352 134.65283,32.2378264 C134.600913,33.5361072 134.834631,34.6778604 135.352672,35.6627115 C135.920756,36.8046519 136.724994,37.3740306 137.763325,37.3740306 C140.09451,37.3740306 142.091705,36.0012306 143.750411,33.2500136 C145.149534,30.9668817 145.899607,28.5813328 146.003815,26.0916817 M154.789897,26.3843285 C154.581106,31.1415711 152.820067,35.2522945 149.503029,38.7155626 C146.185992,42.1792051 142.064154,43.91112 137.140889,43.91112 C133.046602,43.91112 129.936106,42.5922434 127.811838,39.9548647 C126.257902,37.9915285 125.401185,35.5355796 125.246935,32.5898264 C124.985665,28.1433923 126.591892,24.0577583 130.068053,20.3355455 C133.798736,16.2001072 138.487908,14.1324817 144.138755,14.1324817 C147.764855,14.1324817 150.511935,15.3489413 152.379244,17.777554 C154.142346,20.0018945 154.944335,22.8706945 154.789897,26.3843285" id="Fill-10"></path>
            </g>
        </g>
    </g>
</svg>