<?xml version="1.0" encoding="UTF-8"?>
<svg width="30px" height="30px" viewBox="0 0 30 30" version="1.1" xmlns="http://www.w3.org/2000/svg" xmlns:xlink="http://www.w3.org/1999/xlink">
    <!-- Generator: Sketch 43.2 (39069) - http://www.bohemiancoding.com/sketch -->
    <title>icon/instagram</title>
    <desc>Created with Sketch.</desc>
    <defs></defs>
    <g id="Home" stroke="none" stroke-width="1" fill="none" fill-rule="evenodd">
        <g id="Desktop-HD" transform="translate(-196.000000, -3949.000000)" fill-rule="nonzero" fill="#4E4D4C">
            <g id="S5---Bio" transform="translate(120.000000, 3417.000000)">
                <g id="social" transform="translate(0.000000, 530.000000)">
                    <g id="icon/social/instagram" transform="translate(76.000000, 2.000000)">
                        <path d="M22.4803333,15 C22.4803333,19.1312794 19.1312183,22.4803333 15,22.4803333 C10.8688345,22.4803333 7.51966667,19.1311655 7.51966667,15 C7.51966667,10.8688345 10.8688345,7.51966667 15,7.51966667 C19.1311655,7.51966667 22.4803333,10.8688345 22.4803333,15 Z M20.147,15 C20.147,12.1574989 17.8425011,9.853 15,9.853 C12.1574989,9.853 9.853,12.1574989 9.853,15 C9.853,17.8425011 12.1574989,20.147 15,20.147 C17.8425634,20.147 20.147,17.8426055 20.147,15 Z M20.147,15 C20.147,15.6443322 20.6693345,16.1666667 21.3136667,16.1666667 C21.9579989,16.1666667 22.4803333,15.6443322 22.4803333,15 C22.4803333,14.3556678 21.9579989,13.8333333 21.3136667,13.8333333 C20.6693345,13.8333333 20.147,14.3556678 20.147,15 Z" id="Stroke-1"></path>
                        <path d="M23.1366667,7.37633333 C23.1366667,7.33726667 23.1965667,7.33726667 23.1965667,7.37633333 C23.1965667,7.4167 23.1366667,7.4167 23.1366667,7.37633333 C23.1366667,7.92861808 23.5843819,8.37633333 24.1366667,8.37633333 C24.6889514,8.37633333 25.1366667,7.92861808 25.1366667,7.37633333 C25.1366667,4.75003333 21.1965667,4.75003333 21.1965667,7.37633333 C21.1965667,10.0039333 25.1366667,10.0039333 25.1366667,7.37633333 C25.1366667,6.82404858 24.6889514,6.37633333 24.1366667,6.37633333 C23.5843819,6.37633333 23.1366667,6.82404858 23.1366667,7.37633333 Z" id="Stroke-2"></path>
                        <path d="M7.66666667,2.5 C4.8136238,2.5 2.5,4.81364062 2.5,7.66666667 L2.5,22.3333333 C2.5,24.7708516 5.04555183,27.5 7.66666667,27.5 L22.3333333,27.5 C25.1863762,27.5 27.5,25.1863594 27.5,22.3333333 L27.5,7.66666667 C27.5,5.22914841 24.9544482,2.5 22.3333333,2.5 L7.66666667,2.5 Z M7.66666667,0.166666667 L22.3333333,0.166666667 C26.2808261,0.166666667 29.8333333,3.97539659 29.8333333,7.66666667 L29.8333333,22.3333333 C29.8333333,26.47502 26.4750444,29.8333333 22.3333333,29.8333333 L7.66666667,29.8333333 C3.71917388,29.8333333 0.166666667,26.0246034 0.166666667,22.3333333 L0.166666667,7.66666667 C0.166666667,3.52498 3.52495558,0.166666667 7.66666667,0.166666667 Z" id="Stroke-3"></path>
                    </g>
                </g>
            </g>
        </g>
    </g>
</svg>