<?xml version="1.0" encoding="UTF-8"?>
<svg width="18px" height="30px" viewBox="0 0 18 30" version="1.1" xmlns="http://www.w3.org/2000/svg" xmlns:xlink="http://www.w3.org/1999/xlink">
    <!-- Generator: Sketch 43.2 (39069) - http://www.bohemiancoding.com/sketch -->
    <title>icon/tumblr</title>
    <desc>Created with Sketch.</desc>
    <defs></defs>
    <g id="Home" stroke="none" stroke-width="1" fill="none" fill-rule="evenodd">
        <g id="Desktop-HD" transform="translate(-265.000000, -3949.000000)" fill-rule="nonzero" fill="#4E4D4C">
            <g id="S5---Bio" transform="translate(120.000000, 3417.000000)">
                <g id="social" transform="translate(0.000000, 530.000000)">
                    <g id="icon/social/tumblr" transform="translate(145.000000, 2.000000)">
                        <path d="M17.8663043,28.1451969 C16.8411923,29.2293746 14.4655725,29.9652624 12.3382688,30 L12.1047224,30 C4.958016,30 3.40580898,24.7966786 3.40580898,21.7594271 L3.40580898,13.3213986 L0.590327915,13.3213986 C0.433763217,13.3213986 0.283611002,13.2598074 0.172903043,13.1501743 C0.0621950839,13.0405411 0,12.8918467 0,12.736802 L0,8.75203778 C0.000278955327,8.33173909 0.267791766,7.95715901 0.667869032,7.816866 C4.33676394,6.53706102 5.48741875,3.36634418 5.65773227,0.956197151 C5.7038877,0.312181001 6.0440532,0 6.60853407,0 L10.8049855,0 C11.1310146,0 11.3953134,0.261732828 11.3953134,0.584596633 L11.3953134,7.33328255 L16.3076356,7.33328255 C16.6331251,7.33302895 16.8974072,7.59372284 16.898425,7.91605089 L16.898425,12.7048069 C16.8983027,12.8598516 16.8359902,13.0084979 16.7251957,13.1180453 C16.6144011,13.2275927 16.4642003,13.2890677 16.3076356,13.2889464 L11.3726973,13.2889464 L11.3726973,21.0925573 C11.3726973,23.0520302 12.6765881,23.5927478 13.4820003,23.5927478 C14.2546422,23.5744648 15.0152836,23.3413575 15.3965274,23.1896092 C15.6794602,23.0771692 15.9282379,23.0026663 16.1507071,23.0579721 C16.357945,23.1091643 16.4941035,23.2545136 16.5859528,23.5196161 L17.8879974,27.2858993 C17.9936933,27.5875676 18.0846195,27.914375 17.8663043,28.1451969 Z" id="Shape"></path>
                    </g>
                </g>
            </g>
        </g>
    </g>
</svg>