<?xml version="1.0" encoding="UTF-8"?>
<svg width="37px" height="30px" viewBox="0 0 37 30" version="1.1" xmlns="http://www.w3.org/2000/svg" xmlns:xlink="http://www.w3.org/1999/xlink">
    <!-- Generator: Sketch 43.2 (39069) - http://www.bohemiancoding.com/sketch -->
    <title>icon/twitter</title>
    <desc>Created with Sketch.</desc>
    <defs></defs>
    <g id="Home" stroke="none" stroke-width="1" fill="none" fill-rule="evenodd">
        <g id="Desktop-HD" transform="translate(-120.000000, -3949.000000)" fill="#4E4D4C">
            <g id="S5---Bio" transform="translate(120.000000, 3417.000000)">
                <g id="social" transform="translate(0.000000, 530.000000)">
                    <g id="icon/social/twitter" transform="translate(0.000000, 2.000000)">
                        <path d="M33.2339009,8.45370985 C33.2339009,8.12636255 33.2273859,7.79901526 33.2127344,7.47495715 C34.694436,6.40616037 35.9823539,5.07221753 37,3.55332608 C35.6388036,4.1556451 34.1750256,4.5615348 32.639553,4.74489118 C34.2075382,3.80866744 35.4107982,2.32417627 35.9774354,0.554845808 C34.5104061,1.4223109 32.8853986,2.05245183 31.1563924,2.39289301 C29.7707698,0.919840661 27.7989607,0 25.6154859,0 C21.4213536,0 18.0212804,3.39133892 18.0212804,7.57644005 C18.0212804,8.16895436 18.0896653,8.74671972 18.2182987,9.30156553 C11.9070924,8.98567382 6.31408237,5.97081466 2.56929161,1.38782683 C1.91474478,2.50573093 1.54022402,3.80690763 1.54022402,5.19486016 C1.54022402,7.82344322 2.88024596,10.1428847 4.91883102,11.5012974 C3.67322124,11.4620158 2.50251562,11.1199363 1.47836703,10.5536349 L1.47836703,10.6485646 C1.47836703,14.3197566 4.09492703,17.3802915 7.56948763,18.076258 C6.93123923,18.249751 6.26202044,18.3430466 5.56837548,18.3430466 C5.07989371,18.3430466 4.60283304,18.2955817 4.14040307,18.2071969 C5.10594551,21.2171579 7.90978674,23.4070432 11.2331635,23.4677989 C8.63448545,25.5006413 5.3600444,26.7118158 1.80407713,26.7118158 C1.19350617,26.7118158 0.591021686,26.6758066 0,26.6054264 C3.24180334,28.6824402 7.07150215,29.9165343 11.1876875,30 L12.2574371,30 C25.825601,29.6609583 33.2339009,18.3133056 33.2339009,8.45370985 Z" id="Page-1"></path>
                    </g>
                </g>
            </g>
        </g>
    </g>
</svg>