<?xml version="1.0" encoding="UTF-8"?>
<svg width="35px" height="30px" viewBox="0 0 35 30" version="1.1" xmlns="http://www.w3.org/2000/svg" xmlns:xlink="http://www.w3.org/1999/xlink">
    <!-- Generator: Sketch 43.2 (39069) - http://www.bohemiancoding.com/sketch -->
    <title>icon/vimeo</title>
    <desc>Created with Sketch.</desc>
    <defs></defs>
    <g id="Home" stroke="none" stroke-width="1" fill="none" fill-rule="evenodd">
        <g id="Desktop-HD" transform="translate(-390.000000, -3949.000000)" fill="#4E4D4C">
            <g id="S5---Bio" transform="translate(120.000000, 3417.000000)">
                <g id="social" transform="translate(0.000000, 530.000000)">
                    <g id="icon/social/vimeo" transform="translate(270.000000, 2.000000)">
                        <path d="M34.9333108,6.9342 C34.7772297,10.307325 32.4013919,14.925825 27.8054189,20.7880125 C23.0533649,26.9110125 19.0330946,29.9728875 15.7442297,29.9728875 C13.7077973,29.9728875 11.9829595,28.10895 10.5750135,24.3790125 C9.63455405,20.9605125 8.69428378,17.541825 7.75401351,14.1237 C6.70817568,10.395825 5.58685135,8.529825 4.3872027,8.529825 C4.12593243,8.529825 3.21063514,9.07545 1.64433784,10.1620125 L9.45945947e-05,8.061825 C1.72474324,6.5592 3.42631081,5.0567625 5.10063514,3.552075 C7.4007973,1.58145 9.12790541,0.5451375 10.2791216,0.4405125 C12.9990946,0.1813875 14.6734189,2.0247 15.3017162,5.97045 C15.980527,10.2276375 16.4506622,12.8755125 16.7143919,13.9122 C17.4987703,17.4441375 18.3610946,19.208325 19.3036351,19.208325 C20.0352297,19.208325 21.1338514,18.0625125 22.5993108,15.7716375 C24.0625,13.4802 24.8468784,11.7370125 24.9522568,10.5392625 C25.1611216,8.5617 24.3767432,7.5707625 22.5993108,7.5707625 C21.7621486,7.5707625 20.8998243,7.7616375 20.0123378,8.1388875 C21.7301757,2.5611375 25.0120405,-0.14805 29.8556622,0.0062625 C33.4470405,0.1108875 35.1397162,2.4201375 34.9333108,6.9342" id="Fill-1"></path>
                    </g>
                </g>
            </g>
        </g>
    </g>
</svg>