<?xml version="1.0" encoding="UTF-8"?>
<svg width="50px" height="50px" viewBox="0 0 50 50" version="1.1" xmlns="http://www.w3.org/2000/svg" xmlns:xlink="http://www.w3.org/1999/xlink">
    <!-- Generator: Sketch 43.2 (39069) - http://www.bohemiancoding.com/sketch -->
    <title>icon/ui/back-link-arrow-hover</title>
    <desc>Created with Sketch.</desc>
    <defs></defs>
    <g id="Symbols" stroke="none" stroke-width="1" fill="none" fill-rule="evenodd">
        <g id="icon/ui/back-link-arrow-hover" fill="#199083">
            <path d="M25,0 C11.2148148,0 0,11.2148148 0,25 C0,38.7851852 11.2148148,50 25,50 C38.7851852,50 50,38.7851852 50,25 C50,11.2148148 38.7851852,0 25,0 Z M25,48 C12.3182535,48 2,37.6817465 2,25 C2,12.3182535 12.3182535,2 25,2 C37.6817465,2 48,12.3182535 48,25 C48,37.6817465 37.6817465,48 25,48 Z M39.5700662,30.1143839 L26.0356531,14.4936812 C25.7611645,14.176881 25.3882991,14 24.9994768,14 C24.6106545,14 24.2377598,14.1795235 23.9633004,14.4936812 L10.4288874,30.1143839 C9.85703753,30.7743827 9.85703753,31.8435895 10.4288874,32.5036154 C11.0007373,33.1636142 11.9271416,33.1636142 12.4990149,32.5036154 L24.9998867,18.0757713 L37.5007585,32.5063188 C37.7866834,32.8363182 38.161815,33 38.5369348,33 C38.9120664,33 39.2848908,32.8363182 39.5731112,32.5063188 C40.1426773,31.8463199 40.1426773,30.7771131 39.5708216,30.1144515 L39.5700662,30.1143839 Z" id="Page-1-Copy" transform="translate(25.000000, 25.000000) rotate(-360.000000) translate(-25.000000, -25.000000) "></path>
        </g>
    </g>
</svg>