<?xml version="1.0" encoding="UTF-8"?>
<svg width="25px" height="35px" viewBox="0 0 25 35" version="1.1" xmlns="http://www.w3.org/2000/svg" xmlns:xlink="http://www.w3.org/1999/xlink">
    <!-- Generator: Sketch 43.2 (39069) - http://www.bohemiancoding.com/sketch -->
    <title>icon/social/angellist</title>
    <desc>Created with Sketch.</desc>
    <defs></defs>
    <g id="Home" stroke="none" stroke-width="1" fill="none" fill-rule="evenodd">
        <g id="Desktop-HD" transform="translate(-618.000000, -4393.000000)" fill-rule="nonzero" fill="#4E4D4C">
            <g id="S5---Bio" transform="translate(150.000000, 3814.000000)">
                <g id="social" transform="translate(0.000000, 579.000000)">
                    <g id="icon/social/angellist" transform="translate(468.000000, 0.000000)">
                        <path d="M20.9566248,14.9280065 C22.4358299,15.2008153 23.4796002,15.8094272 24.0877894,16.7549837 C24.6956127,17.7008255 25,19.1912148 25,21.226223 C25,25.2647065 23.754939,28.5700163 21.2647438,31.1421525 C18.7746217,33.7140033 15.590043,35 11.7110077,35 C10.1824129,35 8.69903708,34.731543 7.26080721,34.1947004 C5.82221149,33.6577864 4.58571136,32.9086323 3.55028244,31.9470954 C2.36683057,30.8897472 1.47920508,29.7719018 0.887552317,28.5940583 C0.295826382,27.4161435 0,26.2105483 0,24.9762026 C0,23.598033 0.304094594,22.5326233 0.912137443,21.7791174 C1.51996078,21.0258969 2.48148799,20.5133816 3.79679223,20.2406441 C3.55028244,19.6796881 3.36911347,19.2069099 3.25438288,18.8223094 C3.13928645,18.4377089 3.08177481,18.1412148 3.08177481,17.9329698 C3.08177481,17.2117815 3.47213686,16.4748981 4.25286095,15.7213922 C5.03329236,14.9681716 5.76916323,14.5915614 6.45944918,14.5915614 C6.75534873,14.5915614 7.06727251,14.6436404 7.39631808,14.74787 C7.72507097,14.8523848 8.10277461,15.0243172 8.53045336,15.2646657 C7.26446571,11.7710151 6.34435274,9.07474521 5.76909006,7.17564207 C5.19346153,5.27661027 4.90619604,3.9665002 4.90619604,3.2453832 C4.90619604,2.25181411 5.16880323,1.46285161 5.69511517,0.877568284 C6.2212076,0.292498981 6.93622501,0 7.84016741,0 C9.38493283,0 11.3411333,3.36545047 13.708037,10.0962087 C14.1186671,11.2500815 14.4312495,12.1394925 14.6449791,12.7645128 C14.8257822,12.2680493 15.0801943,11.5625561 15.4092399,10.6491031 C17.7761436,3.98240929 19.8139286,0.648991031 21.5236925,0.648991031 C22.3619282,0.648991031 23.0314338,0.925438239 23.5330143,1.47833265 C24.0343021,2.03122707 24.2849826,2.77274766 24.2849826,3.70196698 C24.2849826,4.40738891 24.0096438,5.69709539 23.4589663,7.57215654 C22.9081424,9.44721769 22.0742968,11.8991439 20.9566248,14.9280065 Z M3.30369948,24.7357827 C3.53381918,25.0085202 3.85437703,25.4088871 4.26522668,25.9377395 C5.35004537,27.3960966 6.35232827,28.1252752 7.27317294,28.1252752 C7.58509673,28.1252752 7.86482571,28.0291072 8.11140867,27.8367713 C8.35791846,27.6445067 8.48120994,27.4441806 8.48120994,27.2357929 C8.48120994,26.9954444 8.31679691,26.5950775 7.98811719,26.0338361 C7.65899845,25.4729515 7.2073931,24.8402263 6.63205725,24.1348043 C5.97462464,23.3175194 5.42775192,22.7205361 4.99253666,22.3438545 C4.55695554,21.9676009 4.2073492,21.7789747 3.944742,21.7789747 C3.36911347,21.7789747 2.83899669,22.0793926 2.35446483,22.680371 C1.86956713,23.2813494 1.62715486,23.990481 1.62715486,24.807766 C1.62715486,25.4651753 1.79559224,26.198349 2.13261334,27.007287 C2.46926859,27.8165817 2.9585565,28.6299429 3.59959903,29.4472279 C4.56932127,30.7133204 5.77296807,31.6864859 7.21156379,32.3675805 C8.64972049,33.0493885 10.2399977,33.3891867 11.982249,33.3891867 C15.1873884,33.3891867 17.8706793,32.2233999 20.0320485,29.8918977 C22.1931249,27.5601101 23.274212,24.6394721 23.274212,21.1297697 C23.274212,20.0563698 23.1916762,19.2030575 23.027629,18.5696902 C22.863216,17.9366796 22.5920479,17.475958 22.2139784,17.1874541 C21.5397899,16.6429066 20.2293148,16.1537913 18.281529,15.7211068 C16.3338163,15.2884223 14.2997629,15.0720444 12.1794422,15.0720444 C11.5877894,15.0720444 11.1685984,15.1682124 10.9220886,15.360477 C10.6755056,15.5528129 10.5522141,15.8813392 10.5522141,16.3460558 C10.5522141,17.4361496 11.1768666,18.2251121 12.4260251,18.7138708 C13.674891,19.2030575 15.6965786,19.4470444 18.4910879,19.4470444 L19.5020049,19.4470444 C19.7321246,19.4470444 19.9170252,19.5312271 20.0567068,19.6994497 C20.1960225,19.8677436 20.290924,20.1201488 20.3402406,20.4567366 C20.0604384,20.713137 19.4854684,21.0059213 18.6143794,21.3341623 C17.7429245,21.6626172 17.0772236,21.9871484 16.6173501,22.3076845 C15.6310914,23.0131064 14.8380748,23.8502242 14.2381538,24.81968 C13.6378669,25.7896351 13.3382357,26.7067265 13.3382357,27.5720954 C13.3382357,28.1010192 13.4652589,28.7379535 13.7204027,29.4831839 C13.9751807,30.2284142 14.1025697,30.6891358 14.1025697,30.8654199 L14.1025697,31.0337138 L14.0532531,31.2500204 C13.329748,31.2019364 12.7588755,30.7896555 12.3397577,30.0120363 C11.9205666,29.2347737 11.7110809,28.1971158 11.7110809,26.898991 L11.7110809,26.6826845 C11.5792285,26.7949042 11.4521322,26.8750204 11.3289139,26.9231044 C11.2056224,26.9711883 11.0699652,26.9952303 10.9220886,26.9952303 C10.7741388,26.9952303 10.6343841,26.9831737 10.5028975,26.9591317 C10.3710452,26.935161 10.2231686,26.8990624 10.0591214,26.8509784 C10.108438,27.0276192 10.145462,27.1995516 10.1700471,27.3678455 C10.1947054,27.5361394 10.206998,27.6682634 10.206998,27.7645026 C10.206998,28.3574908 9.96868323,28.8665817 9.49205374,29.2909193 C9.01505839,29.7156135 8.44799075,29.927925 7.79085082,29.927925 C6.7554219,29.927925 5.70345655,29.4350999 4.63502795,28.449521 C3.56630667,27.4639421 3.03253139,26.4987668 3.03253139,25.5528536 C3.03253139,25.3765695 3.05309216,25.2203322 3.09414054,25.0840705 C3.13489624,24.9484509 3.20513946,24.8319507 3.30369948,24.7357827 Z M10.7001639,25.3127191 C10.979527,25.3127191 11.2340124,25.1888708 11.4644247,24.940104 C11.6945444,24.6916938 11.8095677,24.4232369 11.8095677,24.1348043 C11.8095677,23.8306054 11.5835455,23.1214737 11.1315743,22.007338 C10.6792373,20.8935589 10.1165598,19.7998267 9.44273714,18.7260701 C8.94964439,17.9247656 8.46474669,17.3198634 7.98811719,16.9111496 C7.51112184,16.5025071 7.05944332,16.2981859 6.63205725,16.2981859 C6.28691427,16.2981859 5.90474727,16.5109254 5.48555624,16.9352629 C5.06643838,17.3599572 4.85687945,17.756543 4.85687945,18.1251631 C4.85687945,18.5097636 5.06234086,19.0867713 5.47326368,19.8559723 C5.88389382,20.6252446 6.43479088,21.4425296 7.12515,22.3078985 C7.84836246,23.2537403 8.53045336,23.9905524 9.17149589,24.5194762 C9.81253841,25.0483286 10.3218017,25.3127191 10.7001639,25.3127191 Z M13.1163842,13.7020791 L10.4536541,6.20197717 C9.76329499,4.29488382 9.22915386,3.0492662 8.85115755,2.46398288 C8.47272222,1.87905626 8.06216525,1.58655728 7.61831592,1.58655728 C7.27324611,1.58655728 6.9933708,1.71511415 6.78008019,1.97115777 C6.56642374,2.22755809 6.45959552,2.57213616 6.45959552,3.00482063 C6.45959552,3.74206074 6.74693418,5.02413371 7.32256271,6.85103954 C7.89782539,8.67801671 8.76071941,11.0738687 9.91131794,14.0385956 C10.0099511,13.8623115 10.1492668,13.7381777 10.3304358,13.6659804 C10.5112389,13.5939258 10.7578219,13.5578272 11.0701115,13.5578272 C11.1687447,13.5578272 11.3660111,13.5661741 11.6618374,13.5818691 C11.9575175,13.5978496 12.4421225,13.6383 13.1163842,13.7020791 Z M15.9023327,20.9858031 C15.1955835,20.9537709 14.5254924,20.8816449 13.8930108,20.7694965 C13.2602365,20.6576335 12.6561448,20.4971158 12.0808821,20.2887281 C12.3434893,20.8018854 12.5777797,21.3144007 12.783607,21.8272014 C12.9889952,22.3403587 13.1572131,22.8450978 13.2890655,23.3416327 C13.683525,22.8608642 14.0985454,22.42447 14.5341265,22.0315226 C14.9692686,21.6388606 15.4254105,21.2902161 15.9023327,20.9858031 Z M19.181447,14.519364 C20.2823631,11.6026498 21.1415254,9.19481247 21.7579097,7.29570934 C22.3742939,5.39667754 22.6824129,4.2308194 22.6824129,3.79813494 C22.6824129,3.33334692 22.5796821,2.97285976 22.3742939,2.7163881 C22.1684666,2.46027313 21.8849328,2.33178761 21.5236925,2.33178761 C21.063453,2.33178761 20.5949454,2.70440277 20.1183891,3.44956176 C19.6413937,4.19479209 19.1157403,5.39303914 18.5404777,7.04337546 L16.0749407,13.9905116 L19.181447,14.519364 Z" id="Shape"></path>
                    </g>
                </g>
            </g>
        </g>
    </g>
</svg>