<?xml version="1.0" encoding="UTF-8"?>
<svg width="30px" height="30px" viewBox="0 0 30 30" version="1.1" xmlns="http://www.w3.org/2000/svg" xmlns:xlink="http://www.w3.org/1999/xlink">
    <!-- Generator: Sketch 43.2 (39069) - http://www.bohemiancoding.com/sketch -->
    <title>icon/social/angellist</title>
    <desc>Created with Sketch.</desc>
    <defs></defs>
    <g id="Symbols" stroke="none" stroke-width="1" fill="none" fill-rule="evenodd">
        <g id="icon/social/angellist" fill-rule="nonzero" fill="#4E4D4C">
            <path d="M22.6035648,12.7954342 C23.8460971,13.0292703 24.7228642,13.5509376 25.2337431,14.3614146 C25.7443147,15.1721362 26,16.4496127 26,18.1939054 C26,21.6554627 24.9541487,24.4885854 22.8623848,26.6932735 C20.7706822,28.8977171 18.0956361,30 14.8372465,30 C13.5532268,30 12.3071911,29.769894 11.0990781,29.3097432 C9.89065765,28.8495312 8.85199754,28.2073991 7.98223725,27.3832246 C6.98813768,26.4769262 6.24253227,25.5187729 5.74554395,24.5091928 C5.24849416,23.4995516 5,22.4661843 5,21.4081737 C5,20.2268854 5.25543946,19.3136771 5.76619545,18.6678149 C6.27676706,18.0221973 7.08444991,17.5828985 8.18930547,17.3491235 C7.98223725,16.8683041 7.83005532,16.4630656 7.73368162,16.1334081 C7.63700061,15.8037505 7.58869084,15.5496127 7.58869084,15.371117 C7.58869084,14.7529556 7.91659496,14.1213412 8.5724032,13.475479 C9.22796558,12.8298614 9.84609711,12.5070526 10.4259373,12.5070526 C10.6744929,12.5070526 10.9365089,12.5516918 11.2129072,12.6410314 C11.4890596,12.7306156 11.8063307,12.8779861 12.1655808,13.0839992 C11.1021512,10.0894415 10.3292563,7.77835304 9.84603565,6.15055035 C9.36250768,4.52280881 9.12120467,3.39985732 9.12120467,2.78175703 C9.12120467,1.93012638 9.34179471,1.25387281 9.78389674,0.752201386 C10.2258144,0.250713412 10.826429,0 11.5857406,0 C12.8833436,0 14.5265519,2.88467183 16.5147511,8.65389319 C16.8596804,9.64292703 17.1222495,10.4052792 17.3017824,10.941011 C17.453657,10.5154709 17.6673632,9.91076233 17.9437615,9.12780269 C19.9319607,3.41349368 21.6437001,0.556278027 23.0799017,0.556278027 C23.7840197,0.556278027 24.3464044,0.793232776 24.767732,1.26714227 C25.1888138,1.74105177 25.3993854,2.37664085 25.3993854,3.17311455 C25.3993854,3.77776192 25.1681008,4.88322462 24.7055317,6.49041989 C24.2428396,8.09761517 23.5424093,10.1992662 22.6035648,12.7954342 Z M7.77510756,21.2020995 C7.96840811,21.4358744 8.23767671,21.7790461 8.58279041,22.2323481 C9.49403811,23.4823685 10.3359557,24.1073787 11.1094653,24.1073787 C11.3714813,24.1073787 11.6064536,24.024949 11.8135833,23.8600897 C12.0206515,23.6952915 12.1242163,23.5235834 12.1242163,23.3449653 C12.1242163,23.1389523 11.9861094,22.7957807 11.7100184,22.3147167 C11.4335587,21.8339584 11.0542102,21.2916225 10.5709281,20.6869751 C10.0186847,19.9864452 9.55931162,19.4747452 9.19373079,19.1518753 C8.82784266,18.8293722 8.53417333,18.6676926 8.31358328,18.6676926 C7.83005532,18.6676926 7.38475722,18.9251936 6.97775046,19.440318 C6.57043639,19.9554423 6.36681008,20.5632695 6.36681008,21.2637994 C6.36681008,21.8272931 6.50829748,22.4557277 6.79139521,23.1491031 C7.07418562,23.8427843 7.48518746,24.5399511 8.02366318,25.240481 C8.83822987,26.3257032 9.84929318,27.1598451 11.0577136,27.7436404 C12.2657652,28.3280473 13.601598,28.6193029 15.0650891,28.6193029 C17.7574063,28.6193029 20.0113706,27.6200571 21.8269207,25.6216266 C23.642225,23.6229515 24.550338,21.1195475 24.550338,18.1112311 C24.550338,17.1911741 24.481008,16.4597636 24.3432084,15.9168773 C24.2051014,15.3742968 23.9773202,14.9793926 23.6597419,14.7321035 C23.0934235,14.2653486 21.9926245,13.8461068 20.3564843,13.4752344 C18.7204057,13.104362 17.0118009,12.9188952 15.2307314,12.9188952 C14.7337431,12.9188952 14.3816226,13.0013249 14.1745544,13.1661231 C13.9674247,13.3309825 13.8638599,13.6125764 13.8638599,14.010905 C13.8638599,14.9452711 14.3885679,15.6215247 15.4378611,16.0404607 C16.4869084,16.4597636 18.185126,16.6688952 20.5325138,16.6688952 L21.3816841,16.6688952 C21.5749846,16.6688952 21.7303012,16.7410518 21.8476337,16.8852426 C21.9646589,17.0294945 22.0443762,17.2458418 22.0858021,17.5343457 C21.8507683,17.7541174 21.3677935,18.0050754 20.6360787,18.2864248 C19.9040565,18.5679576 19.3448679,18.8461272 18.9585741,19.1208724 C18.1301168,19.7255198 17.4639828,20.4430493 16.9600492,21.2740114 C16.4558082,22.1054015 16.204118,22.8914798 16.204118,23.6332246 C16.204118,24.0865879 16.3108175,24.6325316 16.5251383,25.2713004 C16.7391518,25.9100693 16.8461586,26.3049735 16.8461586,26.4560742 L16.8461586,26.6003261 L16.8047326,26.7857318 C16.1969883,26.7445169 15.7174554,26.3911333 15.3653964,25.7246025 C15.013276,25.0583775 14.8373079,24.1689564 14.8373079,23.056278 L14.8373079,22.8708724 C14.7265519,22.9670607 14.619791,23.0357318 14.5162876,23.0769466 C14.4127228,23.1181614 14.2987707,23.1387689 14.1745544,23.1387689 C14.0502766,23.1387689 13.9328826,23.1284346 13.8224339,23.1078272 C13.7116779,23.0872809 13.5874616,23.0563392 13.449662,23.0151243 C13.4910879,23.1665308 13.5221881,23.3139013 13.5428396,23.4581533 C13.5635526,23.6024052 13.5738783,23.7156543 13.5738783,23.7981451 C13.5738783,24.3064207 13.3736939,24.7427843 12.9733251,25.1065022 C12.572649,25.4705259 12.0963122,25.6525071 11.5443147,25.6525071 C10.6745544,25.6525071 9.7909035,25.2300856 8.89342348,24.3853037 C7.9956976,23.5405218 7.54732637,22.7132287 7.54732637,21.902446 C7.54732637,21.7513453 7.56459742,21.6174276 7.59907806,21.5006319 C7.63331285,21.3843865 7.69231715,21.2845291 7.77510756,21.2020995 Z M13.9881377,21.6966164 C14.2228027,21.6966164 14.4365704,21.5904607 14.6301168,21.377232 C14.8234173,21.164309 14.9200369,20.934203 14.9200369,20.6869751 C14.9200369,20.4262332 14.7301782,19.818406 14.3505224,18.8634325 C13.9705593,17.9087648 13.4979103,16.9712801 12.9318992,16.0509172 C12.5177013,15.3640848 12.1103872,14.8455972 11.7100184,14.4952711 C11.3093423,14.1450061 10.9299324,13.9698736 10.5709281,13.9698736 C10.281008,13.9698736 9.95998771,14.1522218 9.60786724,14.5159397 C9.25580824,14.8799633 9.07977873,15.219894 9.07977873,15.5358541 C9.07977873,15.8655116 9.25236632,16.3600897 9.59754149,17.0194048 C9.94247081,17.6787811 10.4052243,18.379311 10.985126,19.1210558 C11.5926245,19.9317774 12.1655808,20.5633306 12.7040565,21.0166938 C13.2425323,21.4699959 13.6703135,21.6966164 13.9881377,21.6966164 Z M16.0177628,11.7446392 L13.7810695,5.31598043 C13.2011678,3.68132898 12.7524892,2.61365675 12.4349723,2.11198532 C12.1170867,1.61061965 11.7722188,1.35990624 11.3993854,1.35990624 C11.1095267,1.35990624 10.8744315,1.47009784 10.6952674,1.6895638 C10.5157959,1.90933551 10.4260602,2.20468814 10.4260602,2.57556054 C10.4260602,3.20748064 10.6674247,4.30640033 11.1509527,5.87231961 C11.6341733,7.43830004 12.3590043,9.49188748 13.3255071,12.0330819 C13.4083589,11.8819812 13.5253841,11.7755809 13.6775661,11.7136975 C13.8294407,11.6519364 14.0365704,11.6209947 14.2988937,11.6209947 C14.3817455,11.6209947 14.5474493,11.6281492 14.7959435,11.6416021 C15.0443147,11.6552996 15.4513829,11.6899715 16.0177628,11.7446392 Z M18.3579594,17.9878312 C17.7642901,17.9603751 17.2014136,17.8985528 16.6701291,17.8024256 C16.1385986,17.706543 15.6311616,17.5689564 15.147941,17.3903384 C15.368531,17.8301875 15.565335,18.2694863 15.7382299,18.7090298 C15.910756,19.1488789 16.052059,19.5815124 16.162815,20.0071137 C16.494161,19.5950265 16.8427781,19.2209743 17.2086663,18.8841623 C17.5741856,18.5475948 17.9573448,18.2487566 18.3579594,17.9878312 Z M21.1124155,12.4451692 C22.037185,9.94512841 22.7588814,7.88126784 23.2766441,6.25346514 C23.7944069,4.6257236 24.0532268,3.62641663 24.0532268,3.25554423 C24.0532268,2.8571545 23.966933,2.54816551 23.7944069,2.32833265 C23.621512,2.10880554 23.3833436,1.99867509 23.0799017,1.99867509 C22.6933006,1.99867509 22.2997541,2.31805952 21.8994468,2.95676722 C21.4987707,3.59553608 21.0572219,4.62260497 20.5740012,6.03717896 L18.5029502,11.9918671 L21.1124155,12.4451692 Z" id="Shape"></path>
        </g>
    </g>
</svg>