<?xml version="1.0" encoding="UTF-8"?>
<svg width="30px" height="30px" viewBox="0 0 30 30" version="1.1" xmlns="http://www.w3.org/2000/svg" xmlns:xlink="http://www.w3.org/1999/xlink">
    <!-- Generator: Sketch 43.2 (39069) - http://www.bohemiancoding.com/sketch -->
    <title>icon/social/dribbble</title>
    <desc>Created with Sketch.</desc>
    <defs></defs>
    <g id="Symbols" stroke="none" stroke-width="1" fill="none" fill-rule="evenodd">
        <g id="icon/social/dribbble" fill="#4E4D4C">
            <path d="M22.158734,25.6403749 C22.02738,24.86104 21.3455433,21.1103685 19.6696802,16.505326 C23.6846875,15.8627165 27.2120407,16.9148512 27.6503759,17.0530415 C27.0792217,20.618157 25.0330606,23.6969206 22.158734,25.6403749 M15.0001814,27.8317254 C12.0382855,27.8317254 9.30817168,26.8210966 7.13586509,25.1270035 C7.3663451,24.6556263 9.96054729,19.6441511 17.1871371,17.125799 C17.2152961,17.1161957 17.243455,17.1069179 17.2716139,17.0974773 C19.0703671,21.7716964 19.8143813,25.6893682 20.0049831,26.8134465 C18.4664965,27.4685892 16.7750076,27.8317254 15.0001814,27.8317254 M2.18770682,15.0192508 C2.18770682,14.8882223 2.19031111,14.7580076 2.19438032,14.6277929 C2.75495457,14.6393495 8.96375382,14.7192687 15.3620155,12.8044617 C15.7287326,13.5222702 16.0790101,14.2509841 16.4008032,14.9788843 C16.2311985,15.0265754 16.062896,15.0773591 15.8957329,15.1313982 C9.28798841,17.2672447 5.77170343,23.0891436 5.48148744,23.5860754 C3.43516356,21.3146428 2.18770682,18.3101016 2.18770682,15.0192508 M9.5529753,3.42444639 C9.89071966,3.88752238 12.1803822,7.06036611 14.3032072,10.8341506 C8.31007607,12.4256997 3.03149802,12.4027494 2.45839061,12.3950992 C3.28916034,8.41948195 5.96849038,5.11495862 9.5529753,3.42444639 M15.0001814,2.20693902 C18.2557114,2.20693902 21.2307916,3.42819006 23.4932719,5.43544953 C23.2627919,5.76375332 21.3343123,8.35600229 16.778263,10.0636052 C14.6788766,6.2063205 12.3517773,3.03738322 11.9975934,2.56323897 C12.9611821,2.33080575 13.9662767,2.20693902 15.0001814,2.20693902 M24.9176578,6.91712995 C26.7020874,9.09724942 27.7827066,11.8742405 27.8110283,14.8983139 C27.3884816,14.8089541 23.1524349,13.9498627 18.8893687,14.4858589 C18.7995205,14.2666099 18.7077192,14.0462215 18.6134763,13.8246938 C18.34735,13.199826 18.0615288,12.5791903 17.7633371,11.9688089 C22.5007104,10.0347952 24.6476251,7.28254493 24.9176578,6.91712995 M15.0001814,-0.0002 C6.72910695,-0.0002 0.0001,6.72864418 0.0001,14.9997186 C0.0001,23.270793 6.72910695,29.9998 15.0001814,29.9998 C23.2712558,29.9998 30.0001,23.270793 30.0001,14.9997186 C30.0001,6.72864418 23.2712558,-0.0002 15.0001814,-0.0002" id="Fill-1"></path>
        </g>
    </g>
</svg>