<?xml version="1.0" encoding="UTF-8"?>
<svg width="30px" height="30px" viewBox="0 0 30 30" version="1.1" xmlns="http://www.w3.org/2000/svg" xmlns:xlink="http://www.w3.org/1999/xlink">
    <!-- Generator: Sketch 43.2 (39069) - http://www.bohemiancoding.com/sketch -->
    <title>icon/social/fb</title>
    <desc>Created with Sketch.</desc>
    <defs></defs>
    <g id="Symbols" stroke="none" stroke-width="1" fill="none" fill-rule="evenodd">
        <g id="icon/social/fb" fill="#4E4D4C">
            <path d="M7,13.1152428 C7.00750378,12.7468029 7.30617589,12.4526704 7.67238205,12.4526704 L10.6335526,12.4526704 C10.8451724,12.4526704 11.0492768,12.3662449 11.1993909,12.2146257 C11.3494743,12.0630026 11.4335259,11.8583155 11.4335259,11.642997 L11.4335259,8.71669407 C11.4335259,2.60332899 13.3546174,5.84649779e-06 17.8376767,5.84649779e-06 L22.2727087,5.84649779e-06 C22.6374164,-0.00151182064 22.9361001,0.292632255 22.9450908,0.662574294 L22.9450908,4.31665875 C22.9360847,4.68661243 22.6374164,4.98074486 22.2727087,4.98074486 L17.885704,4.98074486 C17.4429692,4.98074486 17.0857615,5.34160419 17.0857615,5.7888735 L17.0857615,11.724854 C17.0857615,11.9386393 17.1698092,12.1448324 17.3198964,12.2964827 C17.4699836,12.448133 17.6740996,12.5330136 17.8857347,12.5330136 L22.3207667,12.5330136 C22.5308881,12.5299822 22.7319956,12.6255021 22.8640899,12.7922863 C22.9721513,12.9287444 23.0186763,13.1046269 22.9931642,13.277474 L21.5688669,16.0915627 C21.3122206,16.5600599 20.976018,16.7875159 20.8319361,16.7875159 L17.8857501,16.7859983 C17.4430154,16.7859983 17.0858076,17.1483714 17.0858076,17.5956407 L17.0858076,29.3371831 C17.0813045,29.5160971 17.0062629,29.6874266 16.8771886,29.8117743 C16.7481143,29.9361221 16.5755157,30.0043318 16.3969157,29.9997865 L12.1224869,29.9997865 C11.7577792,29.9997865 11.4590956,29.7056424 11.4501049,29.3372142 L11.4501049,17.5137721 C11.4501049,17.2999867 11.3660571,17.0937936 11.2159699,16.9421433 C11.0658827,16.7904931 10.8617667,16.7056124 10.6501316,16.7056124 L7.67243968,16.7056124 C7.30623352,16.7056124 7.00754989,16.4114683 7.00005763,16.04304 L7,13.1152428 Z" id="Page-1"></path>
        </g>
    </g>
</svg>