<?xml version="1.0" encoding="UTF-8"?>
<svg width="16px" height="30px" viewBox="0 0 16 30" version="1.1" xmlns="http://www.w3.org/2000/svg" xmlns:xlink="http://www.w3.org/1999/xlink">
    <!-- Generator: Sketch 43.2 (39069) - http://www.bohemiancoding.com/sketch -->
    <title>icon/social/fb</title>
    <desc>Created with Sketch.</desc>
    <defs></defs>
    <g id="Home" stroke="none" stroke-width="1" fill="none" fill-rule="evenodd">
        <g id="Desktop-HD" transform="translate(-494.000000, -4395.000000)" fill="#4E4D4C">
            <g id="S5---Bio" transform="translate(150.000000, 3814.000000)">
                <g id="social" transform="translate(0.000000, 579.000000)">
                    <g id="icon/social/fb" transform="translate(344.000000, 2.000000)">
                        <path d="M0,13.1152428 C0.00750378367,12.7468029 0.30617589,12.4526704 0.672382049,12.4526704 L3.6335526,12.4526704 C3.84517236,12.4526704 4.04927681,12.3662449 4.19939091,12.2146257 C4.34947426,12.0630026 4.43352586,11.8583155 4.43352586,11.642997 L4.43352586,8.71669407 C4.43352586,2.60332899 6.35461743,5.84649779e-06 10.8376767,5.84649779e-06 L15.2727087,5.84649779e-06 C15.6374164,-0.00151182064 15.9361001,0.292632255 15.9450908,0.662574294 L15.9450908,4.31665875 C15.9360847,4.68661243 15.6374164,4.98074486 15.2727087,4.98074486 L10.885704,4.98074486 C10.4429692,4.98074486 10.0857615,5.34160419 10.0857615,5.7888735 L10.0857615,11.724854 C10.0857615,11.9386393 10.1698092,12.1448324 10.3198964,12.2964827 C10.4699836,12.448133 10.6740996,12.5330136 10.8857347,12.5330136 L15.3207667,12.5330136 C15.5308881,12.5299822 15.7319956,12.6255021 15.8640899,12.7922863 C15.9721513,12.9287444 16.0186763,13.1046269 15.9931642,13.277474 L14.5688669,16.0915627 C14.3122206,16.5600599 13.976018,16.7875159 13.8319361,16.7875159 L10.8857501,16.7859983 C10.4430154,16.7859983 10.0858076,17.1483714 10.0858076,17.5956407 L10.0858076,29.3371831 C10.0813045,29.5160971 10.0062629,29.6874266 9.87718857,29.8117743 C9.74811427,29.9361221 9.57551572,30.0043318 9.39691568,29.9997865 L5.12248693,29.9997865 C4.75777922,29.9997865 4.45909559,29.7056424 4.45010488,29.3372142 L4.45010488,17.5137721 C4.45010488,17.2999867 4.36605713,17.0937936 4.21596993,16.9421433 C4.06588273,16.7904931 3.86176675,16.7056124 3.65013162,16.7056124 L0.672439682,16.7056124 C0.306233523,16.7056124 0.00754988987,16.4114683 5.76327471e-05,16.04304 L0,13.1152428 Z" id="Page-1"></path>
                    </g>
                </g>
            </g>
        </g>
    </g>
</svg>