<?xml version="1.0" encoding="UTF-8"?>
<svg width="30px" height="30px" viewBox="0 0 30 30" version="1.1" xmlns="http://www.w3.org/2000/svg" xmlns:xlink="http://www.w3.org/1999/xlink">
    <!-- Generator: Sketch 43.2 (39069) - http://www.bohemiancoding.com/sketch -->
    <title>icon/social/instagram</title>
    <desc>Created with Sketch.</desc>
    <defs></defs>
    <g id="Symbols" stroke="none" stroke-width="1" fill="none" fill-rule="evenodd">
        <g id="icon/social/instagram" fill-rule="nonzero" fill="#4E4D4C">
            <path d="M22.4803333,15 C22.4803333,19.1312794 19.1312183,22.4803333 15,22.4803333 C10.8688345,22.4803333 7.51966667,19.1311655 7.51966667,15 C7.51966667,10.8688345 10.8688345,7.51966667 15,7.51966667 C19.1311655,7.51966667 22.4803333,10.8688345 22.4803333,15 Z M20.147,15 C20.147,12.1574989 17.8425011,9.853 15,9.853 C12.1574989,9.853 9.853,12.1574989 9.853,15 C9.853,17.8425011 12.1574989,20.147 15,20.147 C17.8425634,20.147 20.147,17.8426055 20.147,15 Z M20.147,15 C20.147,15.6443322 20.6693345,16.1666667 21.3136667,16.1666667 C21.9579989,16.1666667 22.4803333,15.6443322 22.4803333,15 C22.4803333,14.3556678 21.9579989,13.8333333 21.3136667,13.8333333 C20.6693345,13.8333333 20.147,14.3556678 20.147,15 Z" id="Stroke-1"></path>
            <path d="M23.1366667,7.37633333 C23.1366667,7.33726667 23.1965667,7.33726667 23.1965667,7.37633333 C23.1965667,7.4167 23.1366667,7.4167 23.1366667,7.37633333 C23.1366667,7.92861808 23.5843819,8.37633333 24.1366667,8.37633333 C24.6889514,8.37633333 25.1366667,7.92861808 25.1366667,7.37633333 C25.1366667,4.75003333 21.1965667,4.75003333 21.1965667,7.37633333 C21.1965667,10.0039333 25.1366667,10.0039333 25.1366667,7.37633333 C25.1366667,6.82404858 24.6889514,6.37633333 24.1366667,6.37633333 C23.5843819,6.37633333 23.1366667,6.82404858 23.1366667,7.37633333 Z" id="Stroke-2"></path>
            <path d="M7.58426966,2.35955056 C4.69917013,2.35955056 2.35955056,4.69918714 2.35955056,7.58426966 L2.35955056,22.4157303 C2.35955056,24.8806364 4.9337041,27.6404494 7.58426966,27.6404494 L22.4157303,27.6404494 C25.3008299,27.6404494 27.6404494,25.3008129 27.6404494,22.4157303 L27.6404494,7.58426966 C27.6404494,5.11936357 25.0662959,2.35955056 22.4157303,2.35955056 L7.58426966,2.35955056 Z M7.58426966,1.5162871e-13 L22.4157303,1.5162871e-13 C26.407577,1.5162871e-13 30,3.85152464 30,7.58426966 L30,22.4157303 C30,26.6039528 26.6039775,30 22.4157303,30 L7.58426966,30 C3.59242303,30 -1.8901547e-14,26.1484754 -1.8901547e-14,22.4157303 L-1.8901547e-14,7.58426966 C-1.8901547e-14,3.39604719 3.3960225,1.5162871e-13 7.58426966,1.5162871e-13 Z" id="Stroke-3"></path>
        </g>
    </g>
</svg>