<?xml version="1.0" encoding="UTF-8"?>
<svg width="30px" height="30px" viewBox="0 0 30 30" version="1.1" xmlns="http://www.w3.org/2000/svg" xmlns:xlink="http://www.w3.org/1999/xlink">
    <!-- Generator: Sketch 43.2 (39069) - http://www.bohemiancoding.com/sketch -->
    <title>icon/social/linkedin</title>
    <desc>Created with Sketch.</desc>
    <defs></defs>
    <g id="Symbols" stroke="none" stroke-width="1" fill="none" fill-rule="evenodd">
        <g id="icon/social/linkedin" fill-rule="nonzero" fill="#4E4D4C">
            <path d="M27.7824268,0 L2.21757322,0 C0.990237099,0 0,0.962566845 0,2.1483376 L0,27.8516624 C0,29.0374332 0.990237099,30 2.21757322,30 L27.7824268,30 C29.0027894,30 30,29.0374332 30,27.8516624 L30,2.1483376 C29.9930265,0.962566845 29.0027894,0 27.7824268,0 Z M9.09344491,25.1104394 L4.56066946,25.1104394 L4.56066946,11.5647524 L9.09344491,11.5647524 L9.09344491,25.1104394 Z M6.82705718,9.71634504 L6.79916318,9.71634504 C5.27894003,9.71634504 4.29567643,8.67705185 4.29567643,7.37270402 C4.29567643,6.04743083 5.30683403,5.03603813 6.86192469,5.03603813 C8.41004184,5.03603813 9.36541144,6.04743083 9.39330544,7.37270402 C9.39330544,8.67705185 8.41004184,9.71634504 6.82705718,9.71634504 Z M20.8995816,25.1104394 L20.8995816,17.8632876 C20.8995816,16.0427807 20.2440725,14.801209 18.6052999,14.801209 C17.3500697,14.801209 16.6108787,15.6382237 16.2831241,16.4473378 C16.1645746,16.7333178 16.1297071,17.1378749 16.1297071,17.542432 L16.1297071,25.1104394 L11.5969317,25.1104394 C11.5969317,25.1104394 11.6596932,12.8342246 11.5969317,11.5647524 L16.1297071,11.5647524 L16.1297071,13.482911 C16.7294282,12.5621948 17.8033473,11.2438968 20.209205,11.2438968 C23.1938633,11.2438968 25.4253835,13.1760056 25.4253835,17.3401535 L25.432357,25.1104394 L20.8995816,25.1104394 Z M16.1018131,13.5498861 C16.1118131,13.5298861 16.1318131,13.5098861 16.1418131,13.4898861 L16.1418131,13.5498861 L16.1018131,13.5498861 Z" id="LinkedIn__x28_alt_x29_"></path>
        </g>
    </g>
</svg>