<?xml version="1.0" encoding="UTF-8"?>
<svg width="30px" height="30px" viewBox="0 0 30 30" version="1.1" xmlns="http://www.w3.org/2000/svg" xmlns:xlink="http://www.w3.org/1999/xlink">
    <!-- Generator: Sketch 43.2 (39069) - http://www.bohemiancoding.com/sketch -->
    <title>icon/social/tumblr</title>
    <desc>Created with Sketch.</desc>
    <defs></defs>
    <g id="Symbols" stroke="none" stroke-width="1" fill="none" fill-rule="evenodd">
        <g id="icon/social/tumblr" fill-rule="nonzero" fill="#4E4D4C">
            <path d="M23.8663043,28.1451969 C22.8411923,29.2293746 20.4655725,29.9652624 18.3382688,30 L18.1047224,30 C10.958016,30 9.40580898,24.7966786 9.40580898,21.7594271 L9.40580898,13.3213986 L6.59032791,13.3213986 C6.43376322,13.3213986 6.283611,13.2598074 6.17290304,13.1501743 C6.06219508,13.0405411 6,12.8918467 6,12.736802 L6,8.75203778 C6.00027896,8.33173909 6.26779177,7.95715901 6.66786903,7.816866 C10.3367639,6.53706102 11.4874187,3.36634418 11.6577323,0.956197151 C11.7038877,0.312181001 12.0440532,0 12.6085341,0 L16.8049855,0 C17.1310146,0 17.3953134,0.261732828 17.3953134,0.584596633 L17.3953134,7.33328255 L22.3076356,7.33328255 C22.6331251,7.33302895 22.8974072,7.59372284 22.898425,7.91605089 L22.898425,12.7048069 C22.8983027,12.8598516 22.8359902,13.0084979 22.7251957,13.1180453 C22.6144011,13.2275927 22.4642003,13.2890677 22.3076356,13.2889464 L17.3726973,13.2889464 L17.3726973,21.0925573 C17.3726973,23.0520302 18.6765881,23.5927478 19.4820003,23.5927478 C20.2546422,23.5744648 21.0152836,23.3413575 21.3965274,23.1896092 C21.6794602,23.0771692 21.9282379,23.0026663 22.1507071,23.0579721 C22.357945,23.1091643 22.4941035,23.2545136 22.5859528,23.5196161 L23.8879974,27.2858993 C23.9936933,27.5875676 24.0846195,27.914375 23.8663043,28.1451969 Z" id="Shape"></path>
        </g>
    </g>
</svg>