<?xml version="1.0" encoding="UTF-8"?>
<svg width="30px" height="30px" viewBox="0 0 30 30" version="1.1" xmlns="http://www.w3.org/2000/svg" xmlns:xlink="http://www.w3.org/1999/xlink">
    <!-- Generator: Sketch 43.2 (39069) - http://www.bohemiancoding.com/sketch -->
    <title>icon/social/twitter</title>
    <desc>Created with Sketch.</desc>
    <defs></defs>
    <g id="Symbols" stroke="none" stroke-width="1" fill="none" fill-rule="evenodd">
        <g id="icon/social/twitter" fill="#4E4D4C">
            <path d="M26.9464062,9.76296788 C26.9464062,9.50109004 26.9411237,9.2392122 26.9292441,8.97996572 C28.1306238,8.1249283 29.1748816,7.05777402 30,5.84266086 C28.8963272,6.32451608 27.7094802,6.64922784 26.4645024,6.79591295 C27.7358418,6.04693396 28.711458,4.85934101 29.1708935,3.44387665 C27.9814103,4.13784872 26.6638367,4.64196146 25.2619398,4.91431441 C24.138462,3.73587253 22.5396979,3 20.7693129,3 C17.3686651,3 14.6118489,5.71307114 14.6118489,9.06115204 C14.6118489,9.53516349 14.6672962,9.99737577 14.7715935,10.4412524 C9.65439928,10.1885391 5.11952625,7.77665173 2.08320941,4.11026146 C1.55249577,5.00458475 1.24883029,6.0455261 1.24883029,7.15588812 C1.24883029,9.25875458 2.33533456,11.1143078 3.98824137,12.201038 C2.9782875,12.1696126 2.02906672,11.895949 1.19867597,11.4429079 L1.19867597,11.5188516 C1.19867597,14.4558053 3.32021111,16.9042332 6.1374224,17.4610064 C5.6199237,17.5998008 5.07731387,17.6744372 4.51489904,17.6744372 C4.11883273,17.6744372 3.73202679,17.6364654 3.35708357,17.5657575 C4.13995582,19.9737263 6.4133406,21.7256346 9.1079704,21.7742391 C7.00093415,23.400513 4.34598195,24.3694526 1.46276524,24.3694526 C0.967707702,24.3694526 0.479206772,24.3406452 0,24.2843411 C2.6284892,25.9459522 5.73365039,26.9332274 9.07109794,27 L9.93846254,27 C20.9396765,26.7287666 26.9464062,17.6506445 26.9464062,9.76296788 Z" id="Page-1"></path>
        </g>
    </g>
</svg>