<?xml version="1.0" encoding="UTF-8"?>
<svg width="30px" height="30px" viewBox="0 0 30 30" version="1.1" xmlns="http://www.w3.org/2000/svg" xmlns:xlink="http://www.w3.org/1999/xlink">
    <!-- Generator: Sketch 43.2 (39069) - http://www.bohemiancoding.com/sketch -->
    <title>icon/social/vimeo</title>
    <desc>Created with Sketch.</desc>
    <defs></defs>
    <g id="Symbols" stroke="none" stroke-width="1" fill="none" fill-rule="evenodd">
        <g id="icon/social/vimeo" fill="#4E4D4C">
            <path d="M29.9855577,8.01505897 C29.8515827,10.9410809 27.8122394,14.947405 23.8672029,20.0325676 C19.7881913,25.3439723 16.3373197,28 13.5142631,28 C11.7662545,28 10.2857087,26.3831249 9.07717285,23.1475855 C8.26991247,20.182203 7.46281448,17.2166578 6.6557165,14.2516006 C5.75800268,11.0178503 4.79549367,9.39918606 3.76575357,9.39918606 C3.5414875,9.39918606 2.75582552,9.87248921 1.41136592,10.8150293 L0,8.99321882 C1.48038335,7.6897647 2.94095464,6.38647323 4.37814119,5.08123 C6.35252697,3.37180865 7.83502144,2.47285795 8.8231887,2.38210085 C11.1579267,2.15732251 12.5951132,3.75630647 13.1344236,7.17905271 C13.7170931,10.8719558 14.1206421,13.1688586 14.3470193,14.0681346 C15.0203046,17.1319186 15.7604963,18.6622655 16.569543,18.6622655 C17.1975205,18.6622655 18.1405422,17.6683289 19.3984458,15.6811062 C20.6544007,13.6933956 21.3276861,12.1812652 21.4181395,11.1422754 C21.5974225,9.42683607 20.9241371,8.56724598 19.3984458,8.56724598 C18.6798526,8.56724598 17.9396609,8.73282076 17.1778708,9.06006679 C18.652408,4.22163991 21.469456,1.8715515 25.6270662,2.00541009 C28.7097908,2.09616719 30.1627296,4.09932927 29.9855577,8.01505897" id="Fill-1"></path>
        </g>
    </g>
</svg>